<svg width="306" height="306" viewBox="0 0 306 306" fill="none" xmlns="http://www.w3.org/2000/svg">
<rect width="306" height="306" rx="40" fill="#62A691"/>
<path d="M256.001 173.766H228.156C226.797 173.766 225.528 173.513 224.35 173.005C223.171 172.498 222.138 171.809 221.25 170.939C220.361 170.05 219.663 169.017 219.156 167.839C218.648 166.642 218.395 165.373 218.395 164.032C218.395 162.672 218.648 161.403 219.156 160.225C219.663 159.047 220.361 158.013 221.25 157.125C222.138 156.237 223.171 155.539 224.35 155.031C225.528 154.524 226.797 154.27 228.156 154.27H247.626V159.844H228.156C227.576 159.844 227.032 159.962 226.525 160.198C226.017 160.415 225.573 160.714 225.192 161.095C224.812 161.476 224.513 161.92 224.295 162.427C224.078 162.935 223.969 163.47 223.969 164.032C223.969 164.612 224.078 165.156 224.295 165.663C224.513 166.153 224.812 166.588 225.192 166.969C225.573 167.349 226.017 167.648 226.525 167.866C227.032 168.083 227.576 168.192 228.156 168.192H250.427V152.883C250.427 152.321 250.309 151.786 250.073 151.279C249.856 150.771 249.556 150.327 249.176 149.946C248.795 149.566 248.351 149.267 247.843 149.049C247.336 148.813 246.801 148.696 246.239 148.696H223.969V143.148H246.239C247.599 143.148 248.868 143.402 250.046 143.91C251.224 144.417 252.257 145.115 253.146 146.004C254.034 146.874 254.732 147.898 255.239 149.076C255.747 150.255 256.001 151.524 256.001 152.883V173.766Z" fill="white"/>
<path d="M198.108 173.767H192.533V148.696H184.186V143.149H192.533V132H198.108V143.149H217.604V148.696H198.108V173.767Z" fill="white"/>
<path d="M149.787 173.766H144.213V143.148H165.096C167.199 143.148 169.175 143.556 171.024 144.372C172.873 145.17 174.486 146.266 175.864 147.662C177.242 149.04 178.33 150.662 179.127 152.53C179.925 154.379 180.324 156.355 180.324 158.457V173.766H174.749V158.457C174.749 157.116 174.496 155.856 173.988 154.678C173.48 153.499 172.792 152.475 171.921 151.605C171.051 150.717 170.027 150.019 168.849 149.511C167.689 148.986 166.438 148.714 165.096 148.696H149.787V173.766Z" fill="white"/>
<path d="M138.749 152.883C138.749 154.243 138.495 155.512 137.988 156.69C137.48 157.868 136.782 158.902 135.894 159.79C135.024 160.66 133.99 161.349 132.794 161.856C131.616 162.364 130.356 162.618 129.014 162.618H107.669C108.068 163.434 108.566 164.186 109.164 164.875C109.763 165.564 110.433 166.153 111.177 166.642C111.92 167.132 112.726 167.512 113.597 167.784C114.485 168.056 115.409 168.192 116.37 168.192H134.589V173.766H116.37C114.267 173.748 112.291 173.34 110.442 172.543C108.593 171.727 106.98 170.63 105.602 169.253C104.243 167.857 103.164 166.234 102.366 164.385C101.569 162.536 101.17 160.56 101.17 158.457C101.17 156.355 101.569 154.379 102.366 152.53C103.164 150.681 104.243 149.067 105.602 147.689C106.98 146.294 108.593 145.197 110.442 144.399C112.291 143.584 114.267 143.167 116.37 143.148H129.014C130.356 143.148 131.616 143.402 132.794 143.91C133.99 144.417 135.024 145.115 135.894 146.004C136.782 146.874 137.48 147.898 137.988 149.076C138.495 150.255 138.749 151.524 138.749 152.883ZM129.014 157.071C129.576 157.071 130.111 156.962 130.619 156.744C131.126 156.527 131.57 156.228 131.951 155.847C132.332 155.466 132.631 155.022 132.848 154.515C133.066 154.007 133.175 153.463 133.175 152.883C133.175 152.321 133.066 151.786 132.848 151.279C132.631 150.771 132.332 150.327 131.951 149.946C131.57 149.566 131.126 149.267 130.619 149.049C130.111 148.813 129.576 148.696 129.014 148.696H116.37C115.137 148.696 113.977 148.913 112.89 149.348C111.82 149.783 110.859 150.381 110.007 151.143C109.173 151.886 108.475 152.774 107.914 153.808C107.37 154.823 107.016 155.91 106.853 157.071H129.014Z" fill="white"/>
<path d="M56.5743 173.766H51V143.148H80.3672C82.47 143.148 84.446 143.556 86.295 144.372C88.1441 145.17 89.7484 146.266 91.108 147.662C92.4857 149.04 93.5734 150.662 94.371 152.53C95.1686 154.379 95.5675 156.355 95.5675 158.457V173.766H89.9931V158.457C89.9931 157.116 89.7393 155.856 89.2318 154.678C88.7242 153.499 88.0353 152.475 87.1652 151.605C86.295 150.717 85.2708 150.019 84.0925 149.511C82.9323 148.986 81.6905 148.714 80.3672 148.696H76.0709V173.766H70.4966V148.696H56.5743V173.766Z" fill="white"/>
</svg>
