<svg width="306" height="306" viewBox="0 0 306 306" fill="none" xmlns="http://www.w3.org/2000/svg">
<rect width="306" height="306" rx="48" fill="#62A691"/>
<path d="M132.248 171.819H125.387V134.418H161.532C164.12 134.418 166.552 134.916 168.828 135.913C171.104 136.887 173.079 138.227 174.752 139.932C176.448 141.615 177.787 143.597 178.768 145.877C179.75 148.136 180.241 150.55 180.241 153.118V171.819H173.38V153.118C173.38 151.48 173.068 149.941 172.443 148.501C171.818 147.062 170.97 145.811 169.899 144.748C168.828 143.663 167.568 142.81 166.117 142.19C164.689 141.548 163.161 141.216 161.532 141.194H156.244V171.819H149.383V141.194H132.248V171.819Z" fill="white"/>
<path fill-rule="evenodd" clip-rule="evenodd" d="M185.295 107.973H88.9734V198.255H216.656V139.334C216.656 122.014 202.615 107.973 185.295 107.973ZM83 102V204.228H222.629V139.334C222.629 118.715 205.914 102 185.295 102H83Z" fill="white"/>
</svg>
